HIERARCHY
ROOT Hips
{
  OFFSET 363.916 89.4436 202.859
  CHANNELS 6 Xposition Yposition Zposition Zrotation Xrotation Yrotation
  JOINT RightUpLeg
  {
    OFFSET -9.22681 -1.41939 0.059526
    CHANNELS 3 Zrotation Xrotation Yrotation
    JOINT RightLeg
    {
      OFFSET 0.076897 -41.8891 0.179098
      CHANNELS 3 Zrotation Xrotation Yrotation
      JOINT RightFoot
      {
        OFFSET -0.0130714 -43.0092 0.527065
        CHANNELS 3 Zrotation Xrotation Yrotation
        End Site
        {
          OFFSET 0 -7.69 17.5
        }
      }
    }
  }
  JOINT LeftUpLeg
  {
    OFFSET 9.19333 -1.7604 -0.077889
    CHANNELS 3 Zrotation Xrotation Yrotation
    JOINT LeftLeg
    {
      OFFSET -0.0291634 -41.859 -0.15197
      CHANNELS 3 Zrotation Xrotation Yrotation
      JOINT LeftFoot
      {
        OFFSET 0.141288 -40.5593 0.458407
        CHANNELS 3 Zrotation Xrotation Yrotation
        End Site
        {
          OFFSET 0 -7.69 17.5
        }
      }
    }
  }
  JOINT Spine
  {
    OFFSET 0.215607 14.2961 0.04713
    CHANNELS 3 Zrotation Xrotation Yrotation
    JOINT Spine1
    {
      OFFSET 0.127345 9.70675 0.00151561
      CHANNELS 3 Zrotation Xrotation Yrotation
      JOINT Spine2
      {
        OFFSET 0.0493166 10.1169 -0.00299987
        CHANNELS 3 Zrotation Xrotation Yrotation
        JOINT Spine3
        {
          OFFSET 0.0599611 9.70888 0.0197622
          CHANNELS 3 Zrotation Xrotation Yrotation
          JOINT Neck
          {
            OFFSET 0.305156 10.372 0.0704915
            CHANNELS 3 Zrotation Xrotation Yrotation
            JOINT Head
            {
              OFFSET 0.288394 9.47974 0.0406202
              CHANNELS 3 Zrotation Xrotation Yrotation
              End Site
              {
                OFFSET 0 15.95 0
              }
            }
          }
          JOINT RightShoulder
          {
            OFFSET -3.14873 6.92098 0.0285763
            CHANNELS 3 Zrotation Xrotation Yrotation
            JOINT RightArm
            {
              OFFSET -12.7049 -0.00288304 0.0369593
              CHANNELS 3 Zrotation Xrotation Yrotation
              JOINT RightForeArm
              {
                OFFSET -26.4954 -0.160471 0.0134548
                CHANNELS 3 Zrotation Xrotation Yrotation
                JOINT RightHand
                {
                  OFFSET -26.0026 -0.0211725 -0.0218708
                  CHANNELS 3 Zrotation Xrotation Yrotation
                  JOINT RightHandThumb1
                  {
                    OFFSET -2.48905 0.190105 3.12053
                    CHANNELS 3 Zrotation Xrotation Yrotation
                    JOINT RightHandThumb2
                    {
                      OFFSET -3.68274 0 0
                      CHANNELS 3 Zrotation Xrotation Yrotation
                      JOINT RightHandThumb3
                      {
                        OFFSET -2.55832 0 0
                        CHANNELS 3 Zrotation Xrotation Yrotation
                        End Site
                        {
                          OFFSET -2.194 0 0
                        }
                      }
                    }
                  }
                  JOINT RightInHandIndex
                  {
                    OFFSET -3.22368 0.508421 1.97842
                    CHANNELS 3 Zrotation Xrotation Yrotation
                    JOINT RightHandIndex1
                    {
                      OFFSET -5.21684 -0.091368 0.999158
                      CHANNELS 3 Zrotation Xrotation Yrotation
                      JOINT RightHandIndex2
                      {
                        OFFSET -3.61937 0 0
                        CHANNELS 3 Zrotation Xrotation Yrotation
                        JOINT RightHandIndex3
                        {
                          OFFSET -2.0521 0 0
                          CHANNELS 3 Zrotation Xrotation Yrotation
                          End Site
                          {
                            OFFSET -1.805 0 0
                          }
                        }
                      }
                    }
                  }
                  JOINT RightInHandMiddle
                  {
                    OFFSET -3.38211 0.517263 0.756737
                    CHANNELS 3 Zrotation Xrotation Yrotation
                    JOINT RightHandMiddle1
                    {
                      OFFSET -5.17411 -0.084 0.313895
                      CHANNELS 3 Zrotation Xrotation Yrotation
                      JOINT RightHandMiddle2
                      {
                        OFFSET -3.94947 0 0
                        CHANNELS 3 Zrotation Xrotation Yrotation
                        JOINT RightHandMiddle3
                        {
                          OFFSET -2.47579 0 0
                          CHANNELS 3 Zrotation Xrotation Yrotation
                          End Site
                          {
                            OFFSET -1.975 0 0
                          }
                        }
                      }
                    }
                  }
                  JOINT RightInHandRing
                  {
                    OFFSET -3.36516 0.537895 -0.128947
                    CHANNELS 3 Zrotation Xrotation Yrotation
                    JOINT RightHandRing1
                    {
                      OFFSET -4.63474 -0.022105 -0.478947
                      CHANNELS 3 Zrotation Xrotation Yrotation
                      JOINT RightHandRing2
                      {
                        OFFSET -3.44238 0 0
                        CHANNELS 3 Zrotation Xrotation Yrotation
                        JOINT RightHandRing3
                        {
                          OFFSET -2.3881 0 0
                          CHANNELS 3 Zrotation Xrotation Yrotation
                          End Site
                          {
                            OFFSET -1.857 0 0
                          }
                        }
                      }
                    }
                  }
                  JOINT RightInHandPinky
                  {
                    OFFSET -3.16105 0.469368 -1.20179
                    CHANNELS 3 Zrotation Xrotation Yrotation
                    JOINT RightHandPinky1
                    {
                      OFFSET -4.14105 -0.022105 -1.09053
                      CHANNELS 3 Zrotation Xrotation Yrotation
                      JOINT RightHandPinky2
                      {
                        OFFSET -2.75653 0 0
                        CHANNELS 3 Zrotation Xrotation Yrotation
                        JOINT RightHandPinky3
                        {
                          OFFSET -1.74189 0 0
                          CHANNELS 3 Zrotation Xrotation Yrotation
                          End Site
                          {
                            OFFSET -1.645 0 0
                          }
                        }
                      }
                    }
                  }
                }
              }
            }
          }
          JOINT LeftShoulder
          {
            OFFSET 3.26342 6.92519 -0.0174379
            CHANNELS 3 Zrotation Xrotation Yrotation
            JOINT LeftArm
            {
              OFFSET 12.8742 -0.0269705 -0.0666419
              CHANNELS 3 Zrotation Xrotation Yrotation
              JOINT LeftForeArm
              {
                OFFSET 26.5114 0.000826062 -0.052783
                CHANNELS 3 Zrotation Xrotation Yrotation
                JOINT LeftHand
                {
                  OFFSET 25.9941 -0.0689373 0.00603348
                  CHANNELS 3 Zrotation Xrotation Yrotation
                  JOINT LeftHandThumb1
                  {
                    OFFSET 2.48905 0.190105 3.12053
                    CHANNELS 3 Zrotation Xrotation Yrotation
                    JOINT LeftHandThumb2
                    {
                      OFFSET 3.68274 0 0
                      CHANNELS 3 Zrotation Xrotation Yrotation
                      JOINT LeftHandThumb3
                      {
                        OFFSET 2.55832 0 0
                        CHANNELS 3 Zrotation Xrotation Yrotation
                        End Site
                        {
                          OFFSET 2.194 0 0
                        }
                      }
                    }
                  }
                  JOINT LeftInHandIndex
                  {
                    OFFSET 3.22368 0.508421 1.97842
                    CHANNELS 3 Zrotation Xrotation Yrotation
                    JOINT LeftHandIndex1
                    {
                      OFFSET 5.21684 -0.091368 0.999158
                      CHANNELS 3 Zrotation Xrotation Yrotation
                      JOINT LeftHandIndex2
                      {
                        OFFSET 3.61937 0 0
                        CHANNELS 3 Zrotation Xrotation Yrotation
                        JOINT LeftHandIndex3
                        {
                          OFFSET 2.0521 0 0
                          CHANNELS 3 Zrotation Xrotation Yrotation
                          End Site
                          {
                            OFFSET 1.805 0 0
                          }
                        }
                      }
                    }
                  }
                  JOINT LeftInHandMiddle
                  {
                    OFFSET 3.38211 0.517263 0.756737
                    CHANNELS 3 Zrotation Xrotation Yrotation
                    JOINT LeftHandMiddle1
                    {
                      OFFSET 5.17411 -0.084 0.313895
                      CHANNELS 3 Zrotation Xrotation Yrotation
                      JOINT LeftHandMiddle2
                      {
                        OFFSET 3.94947 0 0
                        CHANNELS 3 Zrotation Xrotation Yrotation
                        JOINT LeftHandMiddle3
                        {
                          OFFSET 2.47579 0 0
                          CHANNELS 3 Zrotation Xrotation Yrotation
                          End Site
                          {
                            OFFSET 1.975 0 0
                          }
                        }
                      }
                    }
                  }
                  JOINT LeftInHandRing
                  {
                    OFFSET 3.36516 0.537895 -0.128947
                    CHANNELS 3 Zrotation Xrotation Yrotation
                    JOINT LeftHandRing1
                    {
                      OFFSET 4.63474 -0.022105 -0.478947
                      CHANNELS 3 Zrotation Xrotation Yrotation
                      JOINT LeftHandRing2
                      {
                        OFFSET 3.44238 0 0
                        CHANNELS 3 Zrotation Xrotation Yrotation
                        JOINT LeftHandRing3
                        {
                          OFFSET 2.3881 0 0
                          CHANNELS 3 Zrotation Xrotation Yrotation
                          End Site
                          {
                            OFFSET 1.857 0 0
                          }
                        }
                      }
                    }
                  }
                  JOINT LeftInHandPinky
                  {
                    OFFSET 3.16105 0.469368 -1.20179
                    CHANNELS 3 Zrotation Xrotation Yrotation
                    JOINT LeftHandPinky1
                    {
                      OFFSET 4.14105 -0.022105 -1.09053
                      CHANNELS 3 Zrotation Xrotation Yrotation
                      JOINT LeftHandPinky2
                      {
                        OFFSET 2.75653 0 0
                        CHANNELS 3 Zrotation Xrotation Yrotation
                        JOINT LeftHandPinky3
                        {
                          OFFSET 1.74189 0 0
                          CHANNELS 3 Zrotation Xrotation Yrotation
                          End Site
                          {
                            OFFSET 1.645 0 0
                          }
                        }
                      }
                    }
                  }
                }
              }
            }
          }
        }
      }
    }
  }
}
MOTION
Frames: 3
Frame Time: 0.00833333
1.406399306680617656e+03 8.754152619028157289e+01 2.040677711693507774e+02 2.450008536319385399e+01 6.355258833924271045e+00 -1.381654012908121558e+02 3.150392368374102858e+01 -3.975878174137969268e+01 3.404514999446441692e+01 -6.289816430903494293e+00 1.110933978117907550e+01 -3.660510542699427106e+00 1.213763475768860545e+01 1.198976548865692138e+01 4.569719251155596851e+01 3.305969104332017139e+01 -2.073353690803885385e+01 2.028314745968175359e+01 -2.313034715721525814e+01 4.082154094899823349e+01 2.866401140726738461e+01 5.071757494401715860e+00 -2.527707073324947373e+01 1.348115685949459852e+01 -1.165954979530227753e+00 8.341054535216736454e-01 -9.929910930283874393e+00 -2.750659729336499271e-01 1.873498147390942892e-01 -2.475383784214503891e+00 -4.792022115105441515e-01 3.383059002875914434e-01 -4.010942158837939253e+00 -5.795996785628482195e-01 -2.775032293212233436e-01 2.688610870127059904e+00 -6.299611023144645605e-01 -5.456372816658321412e+00 3.571479902775861603e+01 -9.249613611970346483e+00 7.376658906937040072e+00 3.014095254173190241e+01 6.664745324553426720e+00 1.329454853485330101e+00 -2.065332824434643832e+00 7.014549510921021636e+01 -5.312676704893892321e+01 3.244631859542954544e+01 5.188639496188044120e+01 1.002527077067350803e+01 1.030795085641534286e+02 1.921466251241728784e+01 -1.832065313990344890e+01 1.448597481783735574e+01 2.818400000000000105e+01 1.072940000000000005e+01 1.915919999999999845e+01 -2.568957094989936470e-15 -1.098314990758180706e-16 -1.000000000000000000e+01 -1.816618482258222771e-14 -9.896568178746029993e-16 -1.000000000000000000e+01 4.610945218160692688e-16 3.344517513231781115e-15 -3.148042494563991959e-15 1.998179999999999978e+01 8.718970000000000331e-01 2.396399999999999864e+00 2.400000000000000000e+01 -1.009152264524094086e-14 -3.194847158347177641e-14 2.000000000000000000e+01 -1.533838921111900883e-13 -8.882588884938575641e-13 4.610945218160692688e-16 3.344517513231781115e-15 -3.148042494563991959e-15 2.000000000000000000e+01 -7.403350424571579711e-16 -1.031263542766933364e-14 2.400000000000000000e+01 -7.924922298502869582e-15 -3.129705730056702008e-14 2.000000000000000000e+01 -3.629329445687556108e-14 -2.181265199818801513e-13 4.610945218160692688e-16 3.344517513231781115e-15 -3.148042494563991959e-15 1.997479999999999833e+01 -1.025649999999999951e+00 -2.819380000000000219e+00 2.400000000000000000e+01 1.343445493553565935e-15 -1.953407652584685828e-14 2.000000000000000000e+01 -3.015440574641079018e-14 -1.478312175746369178e-13 4.610945218160692688e-16 3.344517513231781115e-15 -3.148042494563991959e-15 1.978150000000000119e+01 -3.009479999999999933e+00 -8.305149999999999366e+00 2.400000000000000000e+01 4.890537329030721551e-15 -3.688482712688188211e-14 2.000000000000000000e+01 -5.050492037718347804e-15 -3.784851640074481072e-14 6.796110105349001174e+00 -1.947745693548798585e+01 -5.231728473750090558e+01 -1.882864808972739468e+01 3.210218215364199068e+01 -1.025949682101416016e+02 3.759014107256007975e+01 1.094909500322399865e+00 -2.278039095371299538e+01 -1.939402358467327048e+01 -1.094331406530451467e+01 -9.874947392743074204e+00 -2.818400000000000105e+01 1.072940000000000005e+01 -1.915919999999999845e+01 4.518104265285494100e-15 -3.546645667985153150e-15 1.000000000000000000e+01 -6.473217682016203363e-15 -3.727944891300466681e-15 1.000000000000000000e+01 9.413033676233043993e-16 5.802580475247213649e-16 5.535725177566735271e-17 -1.998179999999999978e+01 8.718970000000000331e-01 -2.396399999999999864e+00 -2.400000000000000000e+01 -4.436185830041944889e-16 5.888369981165877130e-15 -2.000000000000000000e+01 -7.143777612312606022e-17 -1.989024848871805487e-16 9.413033676233043993e-16 5.802580475247213649e-16 5.535725177566735271e-17 -2.000000000000000000e+01 -2.138815082868776707e-15 5.563025976272539066e-15 -2.400000000000000000e+01 2.909875059291470344e-15 -8.315630711254054216e-16 -2.000000000000000000e+01 -1.284352393606011603e-15 -8.447814729017462935e-15 9.413033676233043993e-16 5.802580475247213649e-16 5.535725177566735271e-17 -1.997479999999999833e+01 -1.025649999999999951e+00 2.819380000000000219e+00 -2.400000000000000000e+01 2.283930204648239015e-15 6.121646065552136671e-16 -2.000000000000000000e+01 -2.486021571236583673e-17 -3.207104953401353935e-15 9.413033676233043993e-16 5.802580475247213649e-16 5.535725177566735271e-17 -1.978150000000000119e+01 -3.009479999999999933e+00 8.305149999999999366e+00 -2.400000000000000000e+01 4.938590411491039776e-15 9.314669577053877099e-16 -2.000000000000000000e+01 8.118517312154165866e-18 -9.887456473558218429e-15
1.406375266687603471e+03 8.756670152808013086e+01 2.040184798896089831e+02 2.453939789299672825e+01 6.540944628771027780e+00 -1.374764838932745192e+02 3.127085981744591692e+01 -3.979037950308456573e+01 3.381564733911408638e+01 -6.270682483023611198e+00 1.124631784707937854e+01 -3.781430985824072444e+00 1.218192065376371147e+01 1.177425488541037346e+01 4.531105151518518426e+01 3.301688100134636272e+01 -2.101194907009338309e+01 2.009984635825786725e+01 -2.282680278676659569e+01 4.071828847407314811e+01 2.831933691804960063e+01 4.919881456307397372e+00 -2.507611011135066192e+01 1.317996634535757750e+01 -1.205322513559718089e+00 8.434882496502260629e-01 -9.913978992637659360e+00 -2.834896041321271487e-01 1.896348632905899834e-01 -2.471693824458392807e+00 -4.937485295297494581e-01 3.419813989462185955e-01 -4.004589046467547320e+00 -5.639978253163194788e-01 -2.692402637599318749e-01 2.665659259323142294e+00 -6.011966404436561717e-01 -5.370266582137923628e+00 3.546647713025345183e+01 -8.981390742833134766e+00 7.370860162534113691e+00 2.984430916134359180e+01 6.571971868571732323e+00 1.191804851120524589e+00 -1.956377149444634922e+00 6.994760102623624221e+01 -5.280163967880626075e+01 3.247055618759536344e+01 5.126698321409485715e+01 9.929387593810909962e+00 1.023315947106975869e+02 1.903948518375448984e+01 -1.843343115269036758e+01 1.437937398247530218e+01 2.818400000000000105e+01 1.072940000000000005e+01 1.915919999999999845e+01 -2.572782372361361971e-15 -1.414794981461155139e-16 -1.000000000000000000e+01 -1.814752386190194166e-14 -9.934430524051908205e-16 -1.000000000000000000e+01 4.561423022585227076e-16 3.343321378360807594e-15 -3.139237791278478973e-15 1.998179999999999978e+01 8.718970000000000331e-01 2.396399999999999864e+00 2.400000000000000000e+01 -1.013320557141981754e-14 -3.199427214062915950e-14 2.000000000000000000e+01 -1.533369824308870917e-13 -8.880042122942065725e-13 4.561423022585227076e-16 3.343321378360807594e-15 -3.139237791278478973e-15 2.000000000000000000e+01 -7.748798170943274062e-16 -1.034707645331601857e-14 2.400000000000000000e+01 -7.949837718149295473e-15 -3.138724371269100504e-14 2.000000000000000000e+01 -3.633078588063568816e-14 -2.184578196809820234e-13 4.561423022585227076e-16 3.343321378360807594e-15 -3.139237791278478973e-15 1.997479999999999833e+01 -1.025649999999999951e+00 -2.819380000000000219e+00 2.400000000000000000e+01 1.331990429345867561e-15 -1.960706445670286703e-14 2.000000000000000000e+01 -3.018158554571343460e-14 -1.480292688702524501e-13 4.561423022585227076e-16 3.343321378360807594e-15 -3.139237791278478973e-15 1.978150000000000119e+01 -3.009479999999999933e+00 -8.305149999999999366e+00 2.400000000000000000e+01 4.842193362208741200e-15 -3.693039364139009153e-14 2.000000000000000000e+01 -5.042179760612417437e-15 -3.793131630734201237e-14 6.911852680004054506e+00 -1.948013666077665107e+01 -5.215365167728988638e+01 -1.911034296577999569e+01 3.196129527467880749e+01 -1.024316515311979714e+02 3.698725185152814987e+01 4.884743524394759007e-01 -2.305974777202086656e+01 -1.953768333052189732e+01 -1.101714240310517390e+01 -9.980698538333832914e+00 -2.818400000000000105e+01 1.072940000000000005e+01 -1.915919999999999845e+01 4.521045842982209304e-15 -3.537724371948579746e-15 1.000000000000000000e+01 -6.475257069940878783e-15 -3.741925095051252037e-15 1.000000000000000000e+01 9.110702384547052908e-16 5.979279623524104426e-16 3.783063758573995960e-17 -1.998179999999999978e+01 8.718970000000000331e-01 -2.396399999999999864e+00 -2.400000000000000000e+01 -4.665778784334107601e-16 5.901796103782452047e-15 -2.000000000000000000e+01 -8.505654431616249051e-17 -1.728877206526803908e-16 9.110702384547052908e-16 5.979279623524104426e-16 3.783063758573995960e-17 -2.000000000000000000e+01 -2.149794553573498625e-15 5.601425876644233770e-15 -2.400000000000000000e+01 2.897372651108927313e-15 -7.757964979840382907e-16 -2.000000000000000000e+01 -1.272241384748597611e-15 -8.395600443384610188e-15 9.110702384547052908e-16 5.979279623524104426e-16 3.783063758573995960e-17 -1.997479999999999833e+01 -1.025649999999999951e+00 2.819380000000000219e+00 -2.400000000000000000e+01 2.293352826137420246e-15 6.904296302204893121e-16 -2.000000000000000000e+01 -2.957073444241819392e-17 -3.179501264442711051e-15 9.110702384547052908e-16 5.979279623524104426e-16 3.783063758573995960e-17 -1.978150000000000119e+01 -3.009479999999999933e+00 8.305149999999999366e+00 -2.400000000000000000e+01 4.919557426544776102e-15 9.834982848311611063e-16 -2.000000000000000000e+01 2.592857740408858427e-17 -9.855721915585941809e-15
1.406350981111367219e+03 8.759284320258437617e+01 2.039717366966023064e+02 2.457440110660730426e+01 6.727606595868361516e+00 -1.367597138856404229e+02 3.102764252928706412e+01 -3.981653772988800455e+01 3.357828653840666533e+01 -6.250159627172056531e+00 1.138285986780710957e+01 -3.904671680946286472e+00 1.222452977766599780e+01 1.155962720422595424e+01 4.491931461267898840e+01 3.296479879465690033e+01 -2.129243982574899618e+01 1.990910335164765499e+01 -2.251652771616933535e+01 4.060990709791482800e+01 2.796684354917140070e+01 4.764564342867414481e+00 -2.487096717822337055e+01 1.286747576952214267e+01 -1.244170969593581866e+00 8.552534333799526323e-01 -9.890321802014316432e+00 -2.917729282682745007e-01 1.925012239902673672e-01 -2.466045506560138101e+00 -5.080487721245549038e-01 3.465748244929056643e-01 -3.995098540968454515e+00 -5.482570797951875630e-01 -2.610175012422119023e-01 2.641720479735020000e+00 -5.722742501058883935e-01 -5.283391156819509327e+00 3.520371401428325697e+01 -8.710942364644564506e+00 7.362494699914874374e+00 2.953755487096669441e+01 6.477061832424916510e+00 1.050198094386546988e+00 -1.840481872086257020e+00 6.975142092406768768e+01 -5.245992451676409019e+01 3.250468171908785564e+01 5.063995077843291881e+01 9.825181277763750387e+00 1.015689493631546867e+02 1.886545266456757730e+01 -1.854572953509521938e+01 1.426947863783691872e+01 2.818400000000000105e+01 1.072940000000000005e+01 1.915919999999999845e+01 -2.576698711692668386e-15 -1.731739907720550945e-16 -1.000000000000000000e+01 -1.812837581891856292e-14 -9.973352830455586620e-16 -1.000000000000000000e+01 4.508827070316726546e-16 3.341448695412555450e-15 -3.130712126147272320e-15 1.998179999999999978e+01 8.718970000000000331e-01 2.396399999999999864e+00 2.400000000000000000e+01 -1.017416130089434838e-14 -3.204027972397639707e-14 2.000000000000000000e+01 -1.532894910555313074e-13 -8.877465993537729063e-13 4.508827070316726546e-16 3.341448695412555450e-15 -3.130712126147272320e-15 2.000000000000000000e+01 -8.086268155504431472e-16 -1.038155803984383964e-14 2.400000000000000000e+01 -7.975045575037820454e-15 -3.147622240717713903e-14 2.000000000000000000e+01 -3.636928040963351013e-14 -2.187941530246955600e-13 4.508827070316726546e-16 3.341448695412555450e-15 -3.130712126147272320e-15 1.997479999999999833e+01 -1.025649999999999951e+00 -2.819380000000000219e+00 2.400000000000000000e+01 1.320853149626602138e-15 -1.967943438957452035e-14 2.000000000000000000e+01 -3.020948011213591855e-14 -1.482302655630790560e-13 4.508827070316726546e-16 3.341448695412555450e-15 -3.130712126147272320e-15 1.978150000000000119e+01 -3.009479999999999933e+00 -8.305149999999999366e+00 2.400000000000000000e+01 4.794257952718429966e-15 -3.697535746864409506e-14 2.000000000000000000e+01 -5.035197876727231307e-15 -3.801566623389784791e-14 7.028325068473891157e+00 -1.948145685132323024e+01 -5.198575982619038172e+01 -1.940428641387588726e+01 3.181556515624480141e+01 -1.022551382115160550e+02 3.637155370662735976e+01 -1.236312034159530171e-01 -2.334721511730626986e+01 -1.968192406329077571e+01 -1.108954496722508054e+01 -1.008436722593966195e+01 -2.818400000000000105e+01 1.072940000000000005e+01 -1.915919999999999845e+01 4.523094359227339838e-15 -3.529247151043448435e-15 1.000000000000000000e+01 -6.478452725123369651e-15 -3.755805813381808589e-15 1.000000000000000000e+01 8.802971743520726869e-16 6.155400036825343855e-16 1.988506835616544713e-17 -1.998179999999999978e+01 8.718970000000000331e-01 -2.396399999999999864e+00 -2.400000000000000000e+01 -4.892389165680275345e-16 5.914492309310081942e-15 -2.000000000000000000e+01 -9.862779148625318221e-17 -1.455572346913288326e-16 8.802971743520726869e-16 6.155400036825343855e-16 1.988506835616544713e-17 -2.000000000000000000e+01 -2.160834034433822018e-15 5.640579423980552633e-15 -2.400000000000000000e+01 2.884399489056711866e-15 -7.185077436754247643e-16 -2.000000000000000000e+01 -1.259801339746371590e-15 -8.341985387518120267e-15 8.802971743520726869e-16 6.155400036825343855e-16 1.988506835616544713e-17 -1.997479999999999833e+01 -1.025649999999999951e+00 2.819380000000000219e+00 -2.400000000000000000e+01 2.302652184872226677e-15 7.691599523776885637e-16 -2.000000000000000000e+01 -3.478988988969132583e-17 -3.150189661497922692e-15 8.802971743520726869e-16 6.155400036825343855e-16 1.988506835616544713e-17 -1.978150000000000119e+01 -3.009479999999999933e+00 8.305149999999999366e+00 -2.400000000000000000e+01 4.900494411517338526e-15 1.035127350305996388e-15 -2.000000000000000000e+01 4.368030605870950946e-17 -9.822941780958899776e-15
